<svg width="35" height="31" viewBox="0 0 35 31" fill="none" xmlns="http://www.w3.org/2000/svg">
<path d="M12.7145 0.389206C12.8596 0.102156 13.1913 -0.0493431 13.5055 0.0144459C15.5372 0.30947 17.5673 0.610872 19.5973 0.918654C20.1045 0.960117 20.4059 1.60917 20.1077 2.02539C19.0838 3.74929 18.0393 5.46362 17.0171 7.1907C21.7183 10.0038 26.4164 12.8217 31.1097 15.6475C32.3472 16.4242 32.647 18.2804 31.7348 19.419C31.0857 20.2977 29.8562 20.6805 28.8212 20.3296C28.3811 20.1718 27.9952 19.9006 27.5949 19.6662C23.1632 17.011 18.7378 14.3478 14.3045 11.6974C13.4098 13.1916 12.5184 14.6875 11.6158 16.1786C11.4276 16.5645 10.8965 16.6618 10.5553 16.4178C8.96373 15.4609 7.37061 14.5057 5.77748 13.5521C5.31182 13.3463 5.21454 12.734 5.5303 12.3544C6.4042 10.9064 7.26695 9.45043 8.14724 8.00561C7.38655 7.58938 6.6163 7.02326 6.40739 6.13021C5.93854 4.71888 6.9496 3.09386 8.39601 2.82913C9.27471 2.61225 10.1406 2.99179 10.8487 3.48775C11.477 2.45916 12.0846 1.4178 12.7145 0.389206ZM13.7367 1.51668C11.5089 5.21484 9.29863 8.92417 7.07239 12.6223C8.28917 13.3607 9.51232 14.0895 10.7355 14.8215C13.2567 10.6114 15.7828 6.4045 18.3072 2.19762C16.7827 1.96958 15.2581 1.75269 13.7367 1.51668ZM7.83308 5.80489C7.98936 6.29447 8.49808 6.50019 8.89995 6.74577C9.29225 6.06961 9.71644 5.41099 10.0944 4.72526C9.6686 4.49402 9.23484 4.12883 8.71336 4.25003C8.02444 4.35528 7.56197 5.15583 7.83308 5.80489ZM16.2628 8.43777C15.8641 9.10596 15.459 9.77096 15.0588 10.4392C19.717 13.2443 24.3799 16.0382 29.0445 18.8306C29.6345 19.2181 30.5196 18.9039 30.7381 18.2342C30.9613 17.6824 30.6775 17.0222 30.1512 16.767C25.5233 13.9874 20.8939 11.211 16.2628 8.43777Z" fill="#222222"/>
<path d="M5.13163 20.9196C4.46503 20.7218 4.52882 19.6454 5.21296 19.5274C6.6514 19.4795 8.09462 19.5083 9.53625 19.5114C10.2347 19.4732 10.525 20.5177 9.91102 20.8542C9.372 21.0759 8.75484 20.9228 8.18393 20.9626C8.18074 22.2273 8.18074 23.4919 8.18393 24.7565C16.8688 24.7629 25.5553 24.7565 34.2401 24.7597C34.6197 24.7373 34.9928 25.0451 34.9896 25.4358C35.004 26.8679 35.0024 28.3016 34.9912 29.7336C35.0056 30.1259 34.6436 30.4768 34.2497 30.4449C23.085 30.4512 11.9188 30.4496 0.752519 30.4449C0.357027 30.4752 -0.0097589 30.1243 0.00937778 29.7272C-0.00338 28.3047 -0.00337997 26.8791 0.0109725 25.4566C-0.00178524 25.0611 0.368191 24.7405 0.754114 24.7613C2.74433 24.7549 4.73454 24.7597 6.72635 24.7597C6.71838 23.4935 6.72476 22.2273 6.72157 20.961C6.19212 20.9483 5.6547 21.0169 5.13163 20.9196ZM1.4526 26.2348C1.46855 27.1534 1.4542 28.0719 1.46377 28.9921C12.1548 28.9889 22.8458 28.9857 33.5368 28.9937C33.5416 28.0719 33.5368 27.1502 33.5432 26.2284C22.8474 26.2141 12.1484 26.2029 1.4526 26.2348Z" fill="#222222"/>
</svg>
