<svg width="38" height="36" viewBox="0 0 38 36" fill="none" xmlns="http://www.w3.org/2000/svg">
<path d="M4.64599 1.02711C5.31537 0.28648 6.34987 -0.101644 7.34133 0.0230302C8.2942 0.127668 9.1788 0.699093 9.67379 1.51987C9.9788 2.0104 10.1309 2.58628 10.1391 3.16216C10.7684 3.16513 11.3977 3.16067 12.027 3.16364C12.03 2.33916 12.3625 1.52209 12.9472 0.939537C13.6033 0.267927 14.571 -0.0823495 15.506 0.0170933C16.5205 0.111341 17.4674 0.734714 17.955 1.6297C18.2199 2.09575 18.3468 2.62932 18.358 3.16364C18.9865 3.16142 19.6151 3.16439 20.2437 3.16216C20.2466 2.21151 20.6941 1.27349 21.4444 0.686477C22.3171 -0.0177859 23.575 -0.198119 24.6088 0.238242C25.7776 0.700577 26.5783 1.91022 26.5776 3.16364C27.2054 3.16364 27.834 3.16067 28.4618 3.16439C28.4581 2.11504 29.0139 1.08944 29.8948 0.520244C30.7327 -0.0407914 31.8466 -0.155818 32.7809 0.220432C33.972 0.671635 34.7979 1.89315 34.795 3.16439C35.3107 3.16884 35.8273 3.14732 36.343 3.17552C37.2076 3.25641 37.9319 4.04082 37.946 4.90909C37.9467 5.44786 37.9527 5.98737 37.943 6.52689C37.9029 7.39738 37.1504 8.16102 36.2807 8.21371C35.7827 8.23152 35.2848 8.21222 34.7876 8.22261C34.789 14.5432 34.7883 20.863 34.7883 27.1828C35.3568 27.2014 35.9319 27.1412 36.4966 27.2192C37.2491 27.3639 37.8629 28.0325 37.9363 28.7961C37.9616 29.1412 37.9408 29.4878 37.9475 29.8344C37.9393 30.2321 37.9898 30.6447 37.8451 31.0262C37.6105 31.7141 36.9308 32.2225 36.202 32.2388C35.7315 32.2455 35.261 32.2366 34.7913 32.2395C34.7868 33.0492 34.4692 33.8573 33.8985 34.4354C33.2907 35.0759 32.4002 35.4351 31.5178 35.3995C30.516 35.3742 29.5468 34.8295 28.9976 33.9931C28.6466 33.4796 28.4707 32.8592 28.4588 32.2395C27.8303 32.2395 27.201 32.2403 26.5724 32.241C26.5716 33.1093 26.1999 33.9709 25.5572 34.5564C24.8789 35.1976 23.9052 35.5056 22.9813 35.372C21.9787 35.2436 21.0637 34.5943 20.6036 33.6956C20.3654 33.2488 20.2548 32.7434 20.2422 32.2403C19.6144 32.2418 18.9865 32.2388 18.358 32.2395C18.3505 33.113 17.9802 33.9805 17.3301 34.5675C16.5376 35.3074 15.3495 35.5887 14.3105 35.2763C12.9888 34.9141 12.0122 33.6117 12.027 32.2418C11.3977 32.2373 10.7691 32.2425 10.1398 32.2403C10.1376 33.1531 9.72425 34.054 9.02518 34.6425C8.36174 35.2191 7.44894 35.4922 6.5777 35.3764C5.55433 35.257 4.61927 34.5935 4.15768 33.674C3.92243 33.2258 3.81037 32.7189 3.81334 32.2143C3.81334 31.3802 3.81408 30.5468 3.81334 29.7127C3.18106 29.7127 2.54878 29.7127 1.9165 29.7119C1.91873 30.5468 1.91576 31.3809 1.91873 32.2151C1.93283 32.5178 1.70574 32.811 1.40519 32.8607C0.945823 32.9676 0.559183 32.4933 0.649721 32.0555C0.655658 31.0655 0.653432 30.0755 0.650463 29.0856C0.614842 28.7538 0.917623 28.4526 1.23896 28.4355C2.09684 28.457 2.95546 28.4429 3.81334 28.4466C3.81334 21.7045 3.81408 14.9632 3.8126 8.22187C2.9703 8.2189 2.12726 8.22039 1.28497 8.22113C1.28052 8.66194 1.29536 9.1035 1.27977 9.54431C1.26345 9.85971 0.969571 10.1254 0.654174 10.1157C0.346198 10.1269 0.0567745 9.87232 0.0278322 9.56658C-0.0114997 7.0011 -0.00556279 4.43339 0.0233795 1.86792C0.0270901 1.56662 0.280892 1.3002 0.578478 1.26903C0.933207 1.21783 1.29387 1.52358 1.28423 1.88573C1.28794 2.31022 1.28423 2.73545 1.28423 3.15993C2.12578 3.16735 2.96733 3.16067 3.80889 3.1629C3.81482 2.37923 4.10944 1.60076 4.64599 1.02711ZM6.55915 1.31208C5.86156 1.46198 5.28049 2.04306 5.12613 2.73916C5.05118 3.01077 5.10461 3.29203 5.09645 3.56809C5.08829 5.30018 5.11352 7.03227 5.0779 8.76361C5.07864 16.6033 5.07864 24.4437 5.07938 32.2826C5.08309 33.0648 5.63225 33.7987 6.37362 34.0392C7.05859 34.2781 7.86749 34.0688 8.35654 33.5353C8.72685 33.1479 8.91312 32.5972 8.85747 32.0637C8.85821 30.2566 8.84262 28.4488 8.86934 26.6418C8.87157 18.7302 8.87453 10.8178 8.85227 2.90687C8.73724 1.84269 7.59959 1.0464 6.55915 1.31208ZM14.7884 1.30985C14.0047 1.47089 13.3688 2.17664 13.3064 2.97589C13.3198 4.45788 13.3094 5.94062 13.3131 7.42262C13.2782 10.0207 13.3035 12.6196 13.296 15.2185C13.296 19.0018 13.296 22.7858 13.296 26.5691C13.325 28.4251 13.3131 30.2819 13.3079 32.1386C13.2085 33.1323 14.056 34.0785 15.0452 34.1297C16.0122 34.2314 16.9561 33.4633 17.0704 32.5015C17.0801 30.5505 17.0489 28.5958 17.089 26.6448C17.0875 20.6827 17.0875 14.7213 17.089 8.75916C17.0481 6.80666 17.0801 4.85194 17.0697 2.90019C16.9494 1.84269 15.8251 1.0516 14.7884 1.30985ZM22.9553 1.32098C22.0938 1.51987 21.4481 2.38294 21.5164 3.26754C21.5156 12.9855 21.5075 22.7034 21.5208 32.4206C21.5906 33.3497 22.4329 34.1319 23.3635 34.1364C24.1501 34.1646 24.9175 33.6488 25.1832 32.9067C25.3754 32.4236 25.2692 31.8959 25.2922 31.3913C25.3123 21.9168 25.3071 12.4408 25.293 2.96624C25.2158 1.85901 24.0247 1.02265 22.9553 1.32098ZM31.1957 1.31727C30.2956 1.50799 29.6343 2.4245 29.7405 3.34027C29.736 9.50053 29.7249 15.6608 29.7301 21.8218C29.7182 25.3342 29.7575 28.8459 29.7375 32.3583C29.7701 33.2919 30.5931 34.1008 31.5238 34.1334C32.5041 34.2106 33.4451 33.4039 33.5141 32.4214C33.526 22.6047 33.5275 12.7873 33.5126 2.96995C33.4332 1.87237 32.2629 1.03007 31.1957 1.31727ZM1.30278 4.42672C1.30426 5.26901 1.305 6.11205 1.30278 6.95434C2.13394 6.95731 2.96511 6.95583 3.79627 6.95509C3.79627 6.11205 3.79553 5.26975 3.79553 4.42672C2.96511 4.4282 2.13394 4.4282 1.30278 4.42672ZM10.1473 4.4282C10.151 5.2705 10.1465 6.11353 10.1495 6.95657C10.7706 6.95138 11.3925 6.95954 12.0144 6.95509C12.0151 6.11279 12.0151 5.2705 12.0137 4.42894C11.3918 4.42672 10.7691 4.42746 10.1473 4.4282ZM18.3713 4.42672C18.3713 5.26975 18.3698 6.11205 18.3728 6.95434C18.9969 6.96028 19.621 6.95212 20.2452 6.95583C20.2444 6.11205 20.2459 5.26901 20.2444 4.42523C19.6203 4.42968 18.9962 4.42746 18.3713 4.42672ZM26.5835 4.42746C26.5813 5.2705 26.5858 6.11279 26.582 6.95509C27.2054 6.95434 27.8295 6.95731 28.4536 6.95583C28.4507 6.11353 28.4522 5.27124 28.4529 4.4282C27.8295 4.42672 27.2069 4.42746 26.5835 4.42746ZM34.7905 4.42672C34.7942 5.26975 34.789 6.11279 34.7935 6.95583C35.2595 6.95063 35.7256 6.96696 36.1916 6.94841C36.4707 6.92985 36.7015 6.66344 36.6814 6.38366C36.6851 5.91391 36.6844 5.44415 36.6814 4.97439C36.6896 4.67755 36.4195 4.4141 36.1226 4.42894C35.6788 4.42449 35.2343 4.42968 34.7905 4.42672ZM10.1346 8.22113C10.1346 14.5417 10.1361 20.8622 10.1339 27.1828C10.7662 27.1828 11.3985 27.1828 12.0315 27.1821C12.03 20.8615 12.0292 14.5417 12.0315 8.22113C11.3992 8.21964 10.7669 8.22039 10.1346 8.22113ZM18.3543 8.22113C18.352 14.5417 18.352 20.863 18.3535 27.1835C18.9828 27.1821 19.6121 27.1821 20.2414 27.1843C20.2563 20.863 20.2414 14.5424 20.2481 8.22113C19.6166 8.21964 18.9851 8.21964 18.3543 8.22113ZM26.5702 8.22261C26.5716 14.5424 26.5702 20.8622 26.5709 27.1828C27.2032 27.1821 27.8347 27.1843 28.467 27.1813C28.464 20.8615 28.4648 14.5409 28.467 8.22113C27.8347 8.22187 27.2024 8.21742 26.5702 8.22261ZM10.148 28.4481C10.1495 29.2911 10.1465 30.1334 10.1495 30.9765C10.7721 30.9742 11.3947 30.9772 12.0174 30.9765C12.0107 30.1327 12.0181 29.2889 12.0144 28.4451C11.3925 28.4526 10.7699 28.4436 10.148 28.4481ZM18.3713 28.4466C18.3713 29.2897 18.3706 30.1334 18.3721 30.9765C18.9969 30.9765 19.6225 30.9757 20.2474 30.9757C20.2422 30.1319 20.2474 29.2889 20.2437 28.4451C19.6196 28.4481 18.9954 28.4488 18.3713 28.4466ZM26.5813 28.4481C26.585 29.2911 26.582 30.1342 26.5835 30.978C27.2062 30.9735 27.8288 30.978 28.4514 30.9757C28.4544 30.1334 28.4499 29.2911 28.4529 28.4488C27.8288 28.4488 27.2054 28.4451 26.5813 28.4481ZM34.7928 28.4444C34.7905 29.2889 34.7942 30.1334 34.7905 30.978C35.2351 30.972 35.6796 30.9794 36.1241 30.975C36.4195 30.9883 36.6888 30.7242 36.6814 30.4295C36.6836 29.9583 36.6851 29.4878 36.6822 29.0173C36.7 28.716 36.4328 28.4407 36.1315 28.4488C35.6855 28.4414 35.2388 28.4555 34.7928 28.4444Z" fill="#222222"/>
</svg>
