<svg width="26" height="39" viewBox="0 0 26 39" fill="none" xmlns="http://www.w3.org/2000/svg">
<path d="M4.55441 0.911686C4.55533 0.50648 4.85878 0.129027 5.25196 0.0337388C5.80426 -0.131859 6.41762 0.336256 6.41022 0.910761C6.41484 2.82023 6.41114 4.72969 6.41207 6.63916C9.0089 6.64748 11.6057 6.64378 14.2026 6.64101C14.1989 4.73154 14.1979 2.82208 14.2026 0.912611C14.1915 0.417667 14.6476 -0.0171432 15.1407 0.00598506C15.6199 0.000434284 16.0612 0.425994 16.0547 0.908911C16.0649 2.82115 16.0445 4.73432 16.0639 6.64563C17.1436 6.64008 18.2241 6.64563 19.3047 6.64193C19.6775 6.63916 20.0438 6.88339 20.1715 7.23679C20.2696 7.4912 20.227 7.76966 20.2335 8.0361C20.2344 10.4405 20.2344 12.8458 20.2344 15.2512C20.2196 15.9959 20.2964 16.7582 20.0827 17.4835C19.7274 18.8407 18.6561 19.9786 17.324 20.418C16.2887 20.7807 15.1786 20.603 14.1054 20.6484C14.1054 21.5356 14.1101 22.4228 14.1045 23.31C14.1082 23.7883 13.6808 24.2203 13.1997 24.2129C12.4744 24.2212 11.7491 24.2138 11.0238 24.2138C11.0377 24.3739 11.0479 24.5348 11.0488 24.6958C11.046 28.1188 11.0497 31.5408 11.047 34.9629C11.0331 35.5059 11.2218 36.0592 11.5983 36.4551C12.1423 37.0657 13.0554 37.2868 13.8297 37.0537C14.4403 36.8751 14.9427 36.3746 15.1286 35.7668C15.2739 35.3598 15.2045 34.9213 15.2193 34.4994C15.2332 33.6326 15.198 32.7657 15.2359 31.9007C15.3497 30.2975 16.5561 28.8478 18.1094 28.4407C18.7348 28.2502 19.3944 28.3001 20.0392 28.2946C21.7072 28.2983 23.3752 28.2936 25.0423 28.2964C25.5169 28.2705 25.9573 28.6665 25.9906 29.1383C26.0544 29.6351 25.6399 30.1263 25.1404 30.1476C23.316 30.1606 21.4917 30.1458 19.6682 30.1541C19.2519 30.1485 18.8208 30.1226 18.4286 30.2873C17.6431 30.563 17.0843 31.353 17.0695 32.1829C17.0668 33.2015 17.0714 34.2219 17.0677 35.2414C17.0594 36.3774 16.5015 37.4913 15.6032 38.186C14.2257 39.2888 12.1035 39.2573 10.7232 38.1749C9.78693 37.4672 9.20688 36.3191 9.1819 35.1479C9.18283 31.7869 9.1819 28.4259 9.18283 25.064C9.18005 24.7809 9.18005 24.4978 9.20411 24.2157C8.46863 24.212 7.73223 24.2231 6.99675 24.211C6.52493 24.1888 6.12528 23.7596 6.13638 23.2868C6.13638 22.4061 6.13638 21.5254 6.13638 20.6447C4.97627 20.6077 3.75787 20.802 2.66067 20.3227C1.11015 19.7112 0.0231282 18.12 0.00185027 16.4548C-0.000925118 13.4962 -1.05976e-08 10.5376 0.000925118 7.58001C-0.0194277 7.09895 0.398731 6.65396 0.878872 6.64563C2.10374 6.63731 3.32861 6.65118 4.55256 6.63823C4.55626 4.72969 4.55256 2.82023 4.55441 0.911686ZM1.85766 8.49867C1.86228 11.1205 1.85673 13.7432 1.85951 16.365C1.83268 17.5973 2.89843 18.7278 4.12792 18.7824C5.11596 18.8018 6.104 18.7805 7.09204 18.7926C7.57125 18.7842 8.00144 19.2117 8.00051 19.6899C8.00791 20.579 8.00144 21.469 8.00329 22.3589C9.41688 22.358 10.8296 22.3608 12.2422 22.3571C12.2432 21.4727 12.2376 20.5882 12.2441 19.7038C12.233 19.2422 12.6243 18.8194 13.085 18.7963C13.7668 18.7778 14.4487 18.7963 15.1305 18.7898C15.5903 18.7805 16.0575 18.8277 16.5108 18.7232C17.3795 18.5104 18.1048 17.787 18.3037 16.9127C18.3925 16.5519 18.3647 16.1782 18.3684 15.8109C18.3666 13.3741 18.3666 10.9364 18.3684 8.49959C12.8648 8.50144 7.36125 8.50422 1.85766 8.49867Z" fill="#1117A3"/>
</svg>
