<svg width="42" height="37" viewBox="0 0 42 37" fill="none" xmlns="http://www.w3.org/2000/svg">
<path d="M4.16957 0.209527C4.76866 -0.046291 5.43554 0.0105572 6.0718 0.00181126C7.60671 0.0258625 9.13943 -0.0244265 10.6743 0.0171165C11.9884 0.0521001 13.191 0.963861 13.6611 2.17735C13.9606 2.89452 13.8885 3.68602 13.8906 4.44254C18.0012 3.71663 22.1052 2.95574 26.2158 2.22108C26.7318 2.03961 27.3812 2.41131 27.3506 2.99291C27.4096 3.44332 27.0007 3.80191 26.5766 3.82814C22.3545 4.59122 18.1324 5.36742 13.9059 6.11301C13.8906 7.47737 13.8535 8.84611 13.9387 10.2105C13.9912 11.5573 15.2353 12.6987 16.58 12.6462C22.7021 12.6484 28.8265 12.6484 34.9486 12.6484C36.5229 12.6221 37.9987 13.4771 39.0307 14.6162C39.9206 15.692 40.6334 16.9448 41.0095 18.2895C41.0598 19.1466 40.0387 19.2297 39.4156 19.2231C39.4418 20.1633 39.6604 21.0882 39.702 22.0284C39.7173 22.4963 39.2734 22.7871 38.8471 22.798C36.0856 23.0866 33.3284 23.4277 30.5647 23.6966C30.1646 23.7557 29.7513 23.5174 29.6945 23.0997C29.5261 22.188 29.478 21.2587 29.349 20.3404C26.406 20.6771 23.4587 20.9832 20.5157 21.309C18.8736 21.4817 17.2709 22.1246 15.9875 23.1631C14.5597 24.3395 13.8731 26.2089 13.8885 28.0281C14.5094 27.9909 15.3097 28.0871 15.4408 28.8327C15.5305 30.079 15.8607 31.2903 16.0246 32.5256C16.0312 33.0329 15.5174 33.3849 15.0429 33.3193C10.3092 33.304 5.57547 33.3303 0.841751 33.3062C0.30825 33.3434 -0.124671 32.8033 0.0327548 32.2895C0.220792 31.0782 0.459118 29.8734 0.690884 28.6731C0.767411 28.1942 1.27467 28.0128 1.70322 28.0456C5.21689 28.0456 8.73056 28.0521 12.2442 28.0412C12.2617 26.4604 12.5831 24.838 13.4861 23.513C14.892 21.3768 17.3606 20.1611 19.8225 19.7369C26.2114 19.0088 32.6091 18.3529 38.9979 17.6182C38.4557 16.4594 37.7145 15.3115 36.5644 14.6796C35.88 14.2751 35.0623 14.3035 34.2948 14.297C28.4569 14.297 22.619 14.297 16.7812 14.297C15.8366 14.3014 14.8592 14.1199 14.0787 13.5623C13.1866 12.9654 12.6925 11.9575 12.3645 10.967C9.44991 10.9561 6.53315 10.9604 3.61857 10.9626C3.53768 15.9762 3.62295 20.9898 3.57703 26.0034C3.03041 26.0012 2.48379 26.0012 1.93718 26.0034C1.94373 20.7362 1.93499 15.4689 1.93936 10.2039C1.90219 9.72288 2.29576 9.28121 2.7899 9.32494C5.94061 9.29215 9.09132 9.32713 12.242 9.30964C12.2333 7.27184 12.2508 5.23405 12.2377 3.19844C12.3033 2.34353 11.5249 1.60231 10.6831 1.65697C8.85081 1.65041 7.01855 1.65041 5.18628 1.65697C4.40789 1.58701 3.647 2.20578 3.63169 3.00166C3.56391 4.42287 3.62951 5.84626 3.60546 7.26966C3.05884 7.27403 2.51222 7.2784 1.96341 7.28278C1.95685 5.99494 1.95248 4.70929 1.96123 3.42146C1.90438 2.01774 2.89048 0.716789 4.16957 0.209527ZM30.9889 20.1633C31.0479 20.7668 31.1244 21.3681 31.2119 21.9671C33.464 21.7529 35.7117 21.4686 37.9616 21.2325C37.896 20.6312 37.8238 20.0321 37.7451 19.4308C35.4908 19.6582 33.241 19.9272 30.9889 20.1633ZM2.16894 29.7029C2.04431 30.3545 1.92843 31.006 1.81692 31.662C5.94717 31.6729 10.0796 31.6664 14.212 31.6642C14.0918 31.0104 13.9715 30.3567 13.8513 29.7029C9.95717 29.6876 6.06306 29.6898 2.16894 29.7029Z" fill="#1117A3"/>
<path d="M35.4052 26.3906C35.8512 26.1348 36.4328 26.4343 36.5727 26.9066C37.1478 28.4087 38.4815 29.4276 39.2184 30.8313C40.0077 32.4012 40.0033 34.5287 38.6761 35.8099C37.1871 37.3798 34.4366 37.4039 32.9345 35.8405C31.7013 34.7036 31.5526 32.8079 32.1583 31.3145C32.7289 29.7315 34.2179 28.7236 34.8739 27.1887C35.0204 26.9066 35.0947 26.5436 35.4052 26.3906ZM33.8069 31.5835C33.105 32.7117 33.3783 34.4084 34.5503 35.1146C35.2937 35.4448 36.1836 35.4667 36.9379 35.1584C38.0923 34.5221 38.4706 32.9238 37.8781 31.7781C37.3052 30.7395 36.4547 29.8933 35.7965 28.9116C35.1406 29.8081 34.3928 30.6389 33.8069 31.5835Z" fill="#1117A3"/>
</svg>
