<svg width="36" height="35" viewBox="0 0 36 35" fill="none" xmlns="http://www.w3.org/2000/svg">
<path d="M0.00633424 2.7392C0.00223304 1.29147 1.27907 0.00916432 2.7268 0.00643019C12.5246 -0.00587341 22.3237 0.00506313 32.1228 0.00096193C33.2848 -0.0304806 34.4154 0.711837 34.8392 1.79592C35.0511 2.21698 34.9923 2.69408 34.9978 3.14795C34.9964 11.8097 35.0005 20.4701 34.9964 29.1304C34.8693 30.4866 33.5432 31.4913 32.2226 31.5132C32.2185 32.4633 32.2445 33.4162 32.2131 34.3663C32.2103 34.7545 31.8207 35.0348 31.4516 34.9965C29.7141 34.9965 27.9779 35.002 26.2417 34.9951C25.863 35.017 25.5008 34.7012 25.5226 34.313C25.5076 33.3738 25.5267 32.436 25.5117 31.4968C20.1678 31.4995 14.824 31.4968 9.48147 31.4982C9.47054 32.4333 9.48968 33.3697 9.47464 34.3048C9.49514 34.6889 9.14107 35.017 8.7624 34.9924C6.97974 35.002 5.19572 35.0006 3.41306 34.9938C3.03302 35.0184 2.68305 34.6971 2.70356 34.3116C2.67211 33.3492 2.7227 32.384 2.67895 31.423C1.24626 31.4353 0.00223301 30.1352 0.00496714 28.7176C-0.000501125 20.0586 -0.00323523 11.3982 0.00633424 2.7392ZM1.46773 2.74193C1.44449 3.84515 1.46499 4.94838 1.45816 6.0516C6.56005 6.05297 11.6633 6.04887 16.7666 6.05433C16.7693 4.52048 16.7679 2.988 16.7666 1.45552C12.4097 1.46372 8.05426 1.45552 3.69741 1.45962C3.24355 1.46919 2.77601 1.40904 2.33582 1.54711C1.83274 1.71253 1.47866 2.21561 1.46773 2.74193ZM18.2252 1.46099C18.2321 2.9921 18.228 4.52322 18.228 6.05433C23.282 6.0475 28.3374 6.0557 33.3915 6.05023C33.3901 4.94291 33.401 3.83695 33.3874 2.72963C33.3956 2.00371 32.7066 1.394 31.9902 1.45962C27.401 1.45962 22.8131 1.45552 18.2252 1.46099ZM1.45953 7.50616C1.45679 14.5247 1.45816 21.5432 1.45953 28.5631C1.39527 29.2781 1.99132 30.004 2.73363 29.9657C7.41037 29.9684 12.0871 29.9561 16.7625 29.9712C16.7734 22.4837 16.7679 14.9963 16.7652 7.50889C11.6633 7.50889 6.56142 7.51299 1.45953 7.50616ZM18.2252 7.51026C18.2307 14.995 18.2307 22.4783 18.2252 29.963C22.8104 29.9671 27.3955 29.9643 31.9807 29.9643C32.6956 30.0286 33.3997 29.4271 33.3887 28.6984C33.3997 21.6348 33.3887 14.5712 33.3942 7.50753C28.3374 7.51299 23.2806 7.50753 18.2252 7.51026ZM26.9745 31.4982C26.9772 32.1776 26.9799 32.8584 26.9799 33.5406C28.2417 33.5365 29.5049 33.5392 30.7667 33.5378C30.7626 32.8557 30.7831 32.1749 30.7571 31.4927C29.4953 31.5023 28.2349 31.4968 26.9745 31.4982ZM4.16222 33.5392C5.44453 33.5378 6.7282 33.5337 8.01188 33.5419C8.02145 32.8598 8.02008 32.179 8.02008 31.4968C6.7323 31.5009 5.44589 31.4968 4.15948 31.4982C4.15675 32.179 4.15128 32.8584 4.16222 33.5392Z" fill="#1117A3"/>
<path d="M8.38418 4.01728C9.0349 3.8587 9.728 3.95166 10.3951 3.94893C11.1429 3.97217 11.2304 5.19843 10.5154 5.36521C9.88658 5.42126 9.2509 5.39665 8.62068 5.38298C7.94535 5.34744 7.80044 4.29616 8.38418 4.01728Z" fill="#1117A3"/>
<path d="M24.2771 4.06098C24.6654 3.84225 25.1398 3.97212 25.5663 3.93521C25.9614 3.96528 26.4385 3.82721 26.7625 4.12523C27.1808 4.49981 26.9662 5.35012 26.3715 5.38156C25.7604 5.4007 25.1452 5.41437 24.5342 5.3761C23.9326 5.28997 23.7891 4.38087 24.2771 4.06098Z" fill="#1117A3"/>
<path d="M13.4419 13.707C13.6953 13.6668 13.9749 13.6256 14.2191 13.7207C14.6185 13.8871 14.6128 14.4219 14.2099 14.5855C13.9326 14.6696 13.5766 14.6147 13.3666 14.814C13.1692 14.9612 13.1749 15.1916 13.1726 15.389C13.1806 16.5793 13.1692 17.7695 13.1772 18.9597C13.176 19.2075 13.4065 19.4625 13.7261 19.4899C13.9315 19.532 14.186 19.5064 14.3412 19.6454C14.5945 19.8474 14.5706 20.2286 14.2796 20.4005C14.0353 20.5367 13.7169 20.491 13.4453 20.4452C12.6031 20.2898 11.955 19.638 11.9572 18.946C11.955 17.7009 11.9538 16.4549 11.9572 15.2099C11.9435 14.5114 12.586 13.8514 13.4419 13.707Z" fill="#1117A3"/>
<path d="M20.8617 13.6894C21.9277 13.511 23.021 14.2494 23.0438 15.1159C23.0575 16.4161 23.0506 17.7163 23.0461 19.0165C23.0301 19.8675 21.9983 20.5995 20.9426 20.4778C20.482 20.4137 20.3486 19.8958 20.6622 19.647C20.8218 19.5125 21.068 19.528 21.2767 19.4914C21.5982 19.463 21.833 19.2068 21.8285 18.9552C21.8376 17.7346 21.8285 16.5131 21.8342 15.2925C21.8422 15.1013 21.7794 14.889 21.5788 14.7691C21.328 14.5751 20.913 14.7014 20.6644 14.5056C20.3771 14.2741 20.4501 13.7983 20.8617 13.6894Z" fill="#1117A3"/>
</svg>
