<svg width="29" height="34" viewBox="0 0 29 34" fill="none" xmlns="http://www.w3.org/2000/svg">
<path d="M0.410059 0.0703844C0.60262 -0.01328 0.817757 0.00664003 1.02227 0C9.87875 0.00531203 18.7366 -0.00398393 27.593 0.00398411C27.9755 -0.0318721 28.2809 0.284194 28.346 0.640099C28.3234 11.4899 28.342 22.353 28.3341 33.2081C28.3805 33.6278 28.022 34.0302 27.593 33.9956C18.6927 34.0023 9.79243 33.9943 0.892126 33.9996C0.64246 34.0036 0.356939 33.9784 0.188282 33.7686C-0.0613834 33.5096 0.014313 33.1245 0.0010329 32.8004C0.0103289 22.1299 -0.00162302 11.458 0.00501701 0.787508C-0.0122471 0.496675 0.12985 0.184593 0.410059 0.0703844ZM1.42067 1.41698C1.42067 3.77818 1.42333 6.13805 1.41934 8.49924C9.91859 8.5019 18.4178 8.49659 26.9184 8.5019C26.9144 6.13938 26.9144 3.77818 26.9184 1.41566C18.4192 1.41698 9.91992 1.41566 1.42067 1.41698ZM1.42067 9.91623C1.42333 17.4699 1.41934 25.025 1.422 32.58C9.92124 32.5813 18.4192 32.5813 26.9171 32.58C26.9104 25.025 26.9237 17.4699 26.9104 9.91623C18.4138 9.9149 9.91726 9.9149 1.42067 9.91623Z" fill="#222222"/>
<path d="M21.4845 2.94683C22.7448 2.58959 24.0754 3.7755 24.0409 5.04242C23.9532 6.11412 22.9665 7.06365 21.8776 7.03841C20.8178 6.95873 19.8723 5.98531 19.8829 4.91095C19.9254 4.00392 20.6253 3.19782 21.4845 2.94683ZM21.5004 4.41162C21.2215 4.64535 21.2614 5.09288 21.3942 5.39567C21.7753 5.86446 22.766 5.60682 22.6239 4.91759C22.693 4.31202 21.9161 4.14336 21.5004 4.41162Z" fill="#222222"/>
<path d="M8.90662 4.31494C9.09918 4.23924 9.31299 4.25518 9.51618 4.24854C11.7791 4.2565 14.0407 4.2419 16.3023 4.25518C16.7777 4.22197 17.1389 4.76513 16.9583 5.19673C16.8574 5.52873 16.4949 5.69473 16.1655 5.66552C13.8189 5.65888 11.471 5.6788 9.12574 5.65622C8.43784 5.62435 8.27184 4.56593 8.90662 4.31494Z" fill="#222222"/>
<path d="M12.9134 12.8482C14.835 12.5414 16.8536 12.9624 18.5043 13.9889C20.3807 15.127 21.8097 16.9942 22.3807 19.1177C22.7512 20.4563 22.7579 21.8919 22.4113 23.2372C21.823 25.6063 20.1603 27.6714 17.9943 28.7896C16.1471 29.7723 13.916 30.0113 11.9081 29.4177C8.63453 28.4894 6.01968 25.4709 5.71823 22.0605C5.46591 19.7644 6.27997 17.4046 7.80984 15.6888C9.1166 14.1921 10.9466 13.1536 12.9134 12.8482ZM8.23347 17.3103C7.20825 18.8667 6.89484 20.8202 7.20958 22.6422C8.93068 21.3899 11.094 20.4523 13.2573 20.8826C14.3928 21.0592 15.2932 21.8799 16.422 22.0725C18.1072 22.4018 19.8562 21.8414 21.244 20.8866C21.151 19.0274 20.3462 17.1868 18.9359 15.9517C17.4113 14.5653 15.2573 13.9677 13.2268 14.2319C11.2188 14.463 9.32775 15.6038 8.23347 17.3103ZM7.6518 24.0791C8.33573 25.7497 9.71686 27.1202 11.3955 27.7896C13.5216 28.6568 16.0661 28.4722 18.0142 27.2398C19.6596 26.2305 20.7752 24.4828 21.1417 22.601C19.4259 23.4921 17.3702 23.9025 15.4937 23.2943C14.491 23.0008 13.6358 22.277 12.5614 22.2172C10.7381 22.0552 9.04223 22.9888 7.6518 24.0791Z" fill="#222222"/>
</svg>
